<svg xmlns="http://www.w3.org/2000/svg" width="300" height="300" viewBox="0 0 300 300">
  <metadata><?xpacket begin="﻿" id="W5M0MpCehiHzreSzNTczkc9d"?>
<x:xmpmeta xmlns:x="adobe:ns:meta/" x:xmptk="Adobe XMP Core 5.6-c138 79.159824, 2016/09/14-01:09:01        ">
   <rdf:RDF xmlns:rdf="http://www.w3.org/1999/02/22-rdf-syntax-ns#">
      <rdf:Description rdf:about=""/>
   </rdf:RDF>
</x:xmpmeta>
                                                                                                    
                                                                                                    
                                                                                                    
                                                                                                    
                                                                                                    
                                                                                                    
                                                                                                    
                                                                                                    
                                                                                                    
                                                                                                    
                                                                                                    
                                                                                                    
                                                                                                    
                                                                                                    
                                                                                                    
                                                                                                    
                                                                                                    
                                                                                                    
                                                                                                    
                                                                                                    
                           
<?xpacket end="w"?></metadata>
<defs>
    <style>
      .cls-1 {
        fill: #379df7;
        fill-rule: evenodd;
      }
    </style>
  </defs>
  <path id="形状_1" data-name="形状 1" class="cls-1" d="M268.784,216.883c-23.923,21.295-60.21,5.836-60.21,5.836,0.634,0.06,1.842-1.141,1.842-1.141-7.3-2.109-8.806-5.9-8.806-5.9,1.195,1.022,5.288,1.811,6.526,2.262s0.352-1.479.352-1.479c-16.7-9.988-15.993-15.327-15.993-15.327,3.177,3.174,8.8,5.893,8.8,5.893-6.26-5.747-2.277-3.631-2.277-3.631,13.689,8.731,32.3,13.907,51.669,2.745,20.181-11.639,23.421-34.99,12.972-51.666-8.3-13.242-24.862-20.669-42.576-17.075-3.324,13.864-12.356,35.671-36.8,57.918-29.481,26.827-34.3,44.015-34.716,51.447-0.077-8.687,2.563-29.673,26.116-52.879h-1.434s-15.747,15.174-24.371,31.422c0,0,.448-7.607,7.166-15.711,0,0-3.837,2.036-4.3,2.855s-0.475-10.6,14.339-25.7c0,0,21.948-18.485,32.154-40.014C171.846,161.1,148.409,171,128.716,177.778a96.7,96.7,0,0,0,11.125,6.124s5.2,2.971-5.733,0c0,0,7.054,4.38,12.9,5.706,0,0-5.556,4.53-28.669-7.139,0,0-2.811.358-1.431,1.433s5.159,5.08,7.167,5.706c0,0-5.364.972-12.9-5.706,0,0-.518,2.185,0,2.851a32.47,32.47,0,0,1-4.783-2.125c-40.843,10.906-59.729,6.41-59.729,6.41,16.734,0.068,39.584-5.781,53.908-10.013q-0.787-.562-1.6-1.191c-8.658,1.685-17.942,3.406-23.7,4.461A199.012,199.012,0,0,0,97.1,178.331c-8.435-7.108-18.143-19.583-21.43-40.544-16.936-3.178-32.3,3.068-40.473,16.124C24.8,170.5,28.022,193.744,48.1,205.317c19.262,11.108,37.771,5.962,51.38-2.733,0,0,3.966-2.1-2.264,3.615,0,0,5.6-2.7,8.756-5.863,0,0,.7,5.306-15.9,15.247,0,0-.883,1.917.345,1.472s5.3-1.23,6.489-2.248c0,0-1.5,3.767-8.757,5.869,0,0,1.2,1.194,1.829,1.134,0,0-35.846,15.108-59.877-5.809C2,191.555,9.484,159.171,16.561,146.776c6.066-10.643,26.625-30.876,57.959-24.714,0-2.067.056-4.189,0.177-6.384,2.566-46.918,44.867-65.689,73.742-65.689,23.713,0,69.682,10.7,74.545,72.507,0,0,0,.089.008,0.218,31.426-6.839,52.6,12.206,59.4,24.592C291.156,163.243,295.073,193.482,268.784,216.883Zm-64.435-90.1c0-28.614-26.741-52.836-53.043-52.836S97.161,92.22,98.269,126.783c0.055,1.722.182,3.395,0.359,5.032,7.517,4.983,26.983,17.379,45.514,24.952,0,0-20.653-6.622-21.506-7.14s-12.059-3.78-10.035-2.851,17.669,8.754,20.072,8.562c0,0-10.371.534-29.867-7.068a60.908,60.908,0,0,0,16.081,22.092c41.689-16.6,84.233-40.279,84.233-40.279,0.373-.195.744-0.377,1.115-0.565C204.309,128.6,204.349,127.693,204.349,126.783ZM149.564,246.769a26.862,26.862,0,0,0,.311,4.242A12.612,12.612,0,0,1,149.564,246.769Zm-2.245-57.09,0.794,0.181Zm-0.312-.071,0.312,0.071ZM75.267,184.3c-1.937.4-3.84,0.755-5.667,1.033C69.6,185.328,71.815,184.928,75.267,184.3Zm31.973,14.766C107.4,198.9,107.367,198.935,107.24,199.061Zm-1.27,1.275,1.27-1.275C106.914,199.39,105.97,200.336,105.97,200.336Zm43.28-10.217-0.5-.114Zm0,0,0.273,0.062Zm42.179,9.954h0Z"/>
</svg>
