<?xml version="1.0" encoding="UTF-8"?>
<svg width="42px" height="42px" viewBox="0 0 42 42" version="1.1" xmlns="http://www.w3.org/2000/svg" xmlns:xlink="http://www.w3.org/1999/xlink">
    <!-- Generator: Sketch 49 (51002) - http://www.bohemiancoding.com/sketch -->
    <title>Group</title>
    <desc>Created with Sketch.</desc>
    <defs></defs>
    <g id="Page-1" stroke="none" stroke-width="1" fill="none" fill-rule="evenodd">
        <g id="Group">
            <rect id="Rectangle" fill="#457CD0" x="0" y="0" width="42" height="42"></rect>
            <g id="logo-only" transform="translate(5.000000, 5.000000)" fill="#FFFFFF" fill-rule="nonzero">
                <path d="M28.9233624,19.9027198 C28.7387998,20.0878757 28.4877834,20.1919928 28.2259525,20.1919928 C27.9641216,20.1919928 27.7131052,20.0878757 27.5285426,19.9027198 L24.7034023,17.0779603 C24.3505329,16.6884405 24.364998,16.0917654 24.7363306,15.7196957 L27.5264846,12.9293032 C27.8976498,12.5570685 28.4969798,12.5421477 28.8863181,12.8954492 L28.9207898,12.9303291 L31.7109439,15.7207216 C32.096352,16.1064231 32.096352,16.7302164 31.7109439,17.1159179 L28.9233624,19.9027198 Z M7.39125119,17.141288 L14.8117927,24.584049 C15.1842442,24.9576069 15.7845853,24.9723871 16.1749706,24.6176098 L21.3901587,19.3867661 C21.5755214,19.2006449 21.8273902,19.0960181 22.0900783,19.0960181 C22.3527664,19.0960181 22.6046353,19.2006449 22.7899979,19.3867661 L25.3103279,21.9167369 C25.6965574,22.305214 25.6965574,22.9326518 25.3103279,23.3211288 L17.4699896,31.1857237 C16.950909,31.7069768 16.2455584,32 15.509905,32 C14.7742516,32 14.068901,31.7069768 13.5498204,31.1857237 L0.811336058,18.4062734 C-0.270445353,17.3186774 -0.270445353,15.5615718 0.811336058,14.4739759 L14.951725,0.290133571 C15.3242043,-0.0835363223 15.9247531,-0.098094102 16.3149029,0.257089055 L18.8342002,2.78499456 C19.2561075,3.20834793 19.2561075,3.83625273 18.8693123,4.2244963 L7.38866941,15.738445 C7.00502174,16.1253731 7.00502174,16.7528109 7.39125119,17.141288 Z" id="椭圆_1_拷贝_17"></path>
            </g>
        </g>
    </g>
</svg>